<svg width="64" height="64" viewBox="0 0 64 64" fill="none" xmlns="http://www.w3.org/2000/svg">
  <defs>
    <linearGradient id="faviconGrad" x1="0%" y1="0%" x2="100%" y2="100%">
      <stop offset="0%" style="stop-color:#065f46;stop-opacity:1" />
      <stop offset="100%" style="stop-color:#10b981;stop-opacity:1" />
    </linearGradient>
  </defs>
  
  <!-- Background Circle -->
  <circle cx="32" cy="32" r="30" fill="url(#faviconGrad)"/>
  
  <!-- Simplified Leaf -->
  <path d="M32 10 C44 10 50 16 50 26 C50 32 48 36 45 40 C48 44 50 50 50 56 C50 60 44 62 32 62 C20 62 14 60 14 56 C14 50 16 44 19 40 C16 36 14 32 14 26 C14 16 20 10 32 10 Z" 
        fill="rgba(255,255,255,0.9)"/>
  
  <!-- Simple Gorilla Icon -->
  <g transform="translate(24, 20)">
    <!-- Head -->
    <circle cx="8" cy="8" r="6" fill="#2d3748"/>
    <!-- Body -->
    <ellipse cx="8" cy="18" rx="7" ry="6" fill="#2d3748"/>
    <!-- Arms -->
    <circle cx="3" cy="18" r="3" fill="#2d3748"/>
    <circle cx="13" cy="18" r="3" fill="#2d3748"/>
    <!-- Eyes -->
    <circle cx="6" cy="7" r="1" fill="#ffffff"/>
    <circle cx="10" cy="7" r="1" fill="#ffffff"/>
  </g>
  
  <!-- Small Bird -->
  <path d="M45 18 L47 17 L49 18 L47 18.5 Z" fill="rgba(255,255,255,0.8)"/>
</svg>
