<svg width="32" height="32" viewBox="0 0 32 32" fill="none" xmlns="http://www.w3.org/2000/svg">
  <circle cx="16" cy="16" r="16" fill="#059669"/>
  <path d="M16 8C20 8 22 10 22 14C22 16 21 17 20 18C21 19 21 21 21 23C21 25 20 27 18 28C17 28 16 28 16 28C16 28 15 28 14 28C12 27 11 25 11 23C11 21 11 19 12 18C11 17 10 16 10 14C10 10 12 8 16 8Z" fill="#22C55E"/>
  <circle cx="16" cy="16" r="6" fill="#374151"/>
  <circle cx="14" cy="14" r="1" fill="#FFFFFF"/>
  <circle cx="18" cy="14" r="1" fill="#FFFFFF"/>
</svg>
